<mxfile host="app.diagrams.net" modified="2023-06-05T10:27:30.300Z" agent="Mozilla/5.0 (Windows NT 10.0; Win64; x64) AppleWebKit/537.36 (KHTML, like Gecko) Chrome/114.0.0.0 Safari/537.36 Edg/114.0.1823.37" etag="9jD6OTb8zpoDeMkjxnMR" version="21.3.7" type="device">
  <diagram name="페이지-1" id="1ZYEjAXaOIrbMav5gU2F">
    <mxGraphModel dx="1636" dy="973" grid="0" gridSize="10" guides="1" tooltips="1" connect="1" arrows="1" fold="1" page="0" pageScale="1" pageWidth="827" pageHeight="1169" math="0" shadow="0">
      <root>
        <mxCell id="0" />
        <mxCell id="1" parent="0" />
        <mxCell id="3t_y-RV0TSokjo_L7L0G-1" value="사용자" style="shape=umlLifeline;perimeter=lifelinePerimeter;whiteSpace=wrap;html=1;container=1;dropTarget=0;collapsible=0;recursiveResize=0;outlineConnect=0;portConstraint=eastwest;newEdgeStyle={&quot;edgeStyle&quot;:&quot;elbowEdgeStyle&quot;,&quot;elbow&quot;:&quot;vertical&quot;,&quot;curved&quot;:0,&quot;rounded&quot;:0};fontSize=16;" parent="1" vertex="1">
          <mxGeometry x="-88" y="-57" width="100" height="360" as="geometry" />
        </mxCell>
        <mxCell id="3t_y-RV0TSokjo_L7L0G-2" value="시스템" style="shape=umlLifeline;perimeter=lifelinePerimeter;whiteSpace=wrap;html=1;container=1;dropTarget=0;collapsible=0;recursiveResize=0;outlineConnect=0;portConstraint=eastwest;newEdgeStyle={&quot;edgeStyle&quot;:&quot;elbowEdgeStyle&quot;,&quot;elbow&quot;:&quot;vertical&quot;,&quot;curved&quot;:0,&quot;rounded&quot;:0};fontSize=16;" parent="1" vertex="1">
          <mxGeometry x="103" y="-60" width="100" height="357" as="geometry" />
        </mxCell>
        <mxCell id="BMKQyzHCi9uy5LNqbn66-1" value="UC014 로그인 한다." style="shape=umlFrame;whiteSpace=wrap;html=1;pointerEvents=0;fontSize=16;width=336;height=19;" parent="1" vertex="1">
          <mxGeometry x="-213" y="-122" width="717" height="592" as="geometry" />
        </mxCell>
        <mxCell id="7sOp8VvWY2KY5_nVOXm8-1" value="DB" style="shape=umlLifeline;perimeter=lifelinePerimeter;whiteSpace=wrap;html=1;container=1;dropTarget=0;collapsible=0;recursiveResize=0;outlineConnect=0;portConstraint=eastwest;newEdgeStyle={&quot;edgeStyle&quot;:&quot;elbowEdgeStyle&quot;,&quot;elbow&quot;:&quot;vertical&quot;,&quot;curved&quot;:0,&quot;rounded&quot;:0};fontSize=16;" parent="1" vertex="1">
          <mxGeometry x="270" y="-60" width="100" height="359" as="geometry" />
        </mxCell>
        <mxCell id="7sOp8VvWY2KY5_nVOXm8-9" value="" style="html=1;points=[];perimeter=orthogonalPerimeter;outlineConnect=0;targetShapes=umlLifeline;portConstraint=eastwest;newEdgeStyle={&quot;edgeStyle&quot;:&quot;elbowEdgeStyle&quot;,&quot;elbow&quot;:&quot;vertical&quot;,&quot;curved&quot;:0,&quot;rounded&quot;:0};fontSize=16;" parent="7sOp8VvWY2KY5_nVOXm8-1" vertex="1">
          <mxGeometry x="45" y="155" width="10" height="80" as="geometry" />
        </mxCell>
        <mxCell id="7sOp8VvWY2KY5_nVOXm8-2" value="" style="html=1;points=[];perimeter=orthogonalPerimeter;outlineConnect=0;targetShapes=umlLifeline;portConstraint=eastwest;newEdgeStyle={&quot;edgeStyle&quot;:&quot;elbowEdgeStyle&quot;,&quot;elbow&quot;:&quot;vertical&quot;,&quot;curved&quot;:0,&quot;rounded&quot;:0};fontSize=16;" parent="1" vertex="1">
          <mxGeometry x="148" y="-9" width="10" height="45" as="geometry" />
        </mxCell>
        <mxCell id="7sOp8VvWY2KY5_nVOXm8-3" value="로그인 버튼 클릭" style="html=1;verticalAlign=bottom;endArrow=block;edgeStyle=elbowEdgeStyle;elbow=vertical;curved=0;rounded=0;fontSize=12;startSize=8;endSize=8;exitX=0.54;exitY=0.4;exitDx=0;exitDy=0;exitPerimeter=0;" parent="1" edge="1">
          <mxGeometry width="80" relative="1" as="geometry">
            <mxPoint x="-34" y="-3" as="sourcePoint" />
            <mxPoint x="152.5" y="-3.4705882352941444" as="targetPoint" />
          </mxGeometry>
        </mxCell>
        <mxCell id="7sOp8VvWY2KY5_nVOXm8-4" value="아이디/비밀번호 입력 창 표시" style="html=1;verticalAlign=bottom;endArrow=block;edgeStyle=elbowEdgeStyle;elbow=vertical;curved=0;rounded=0;fontSize=12;startSize=8;endSize=8;" parent="1" edge="1">
          <mxGeometry width="80" relative="1" as="geometry">
            <mxPoint x="148" y="31.11764705882365" as="sourcePoint" />
            <mxPoint x="-38.67647058823536" y="31.11764705882365" as="targetPoint" />
          </mxGeometry>
        </mxCell>
        <mxCell id="7sOp8VvWY2KY5_nVOXm8-5" value="" style="html=1;points=[];perimeter=orthogonalPerimeter;outlineConnect=0;targetShapes=umlLifeline;portConstraint=eastwest;newEdgeStyle={&quot;edgeStyle&quot;:&quot;elbowEdgeStyle&quot;,&quot;elbow&quot;:&quot;vertical&quot;,&quot;curved&quot;:0,&quot;rounded&quot;:0};fontSize=16;" parent="1" vertex="1">
          <mxGeometry x="-43" y="27" width="10" height="39" as="geometry" />
        </mxCell>
        <mxCell id="7sOp8VvWY2KY5_nVOXm8-6" value="입력 후 확인 버튼 클릭&amp;nbsp;" style="html=1;verticalAlign=bottom;endArrow=block;edgeStyle=elbowEdgeStyle;elbow=vertical;curved=0;rounded=0;fontSize=12;startSize=8;endSize=8;" parent="1" target="3t_y-RV0TSokjo_L7L0G-2" edge="1">
          <mxGeometry width="80" relative="1" as="geometry">
            <mxPoint x="-33" y="64.82" as="sourcePoint" />
            <mxPoint x="47" y="64.82" as="targetPoint" />
          </mxGeometry>
        </mxCell>
        <mxCell id="7sOp8VvWY2KY5_nVOXm8-7" value="" style="html=1;points=[];perimeter=orthogonalPerimeter;outlineConnect=0;targetShapes=umlLifeline;portConstraint=eastwest;newEdgeStyle={&quot;edgeStyle&quot;:&quot;elbowEdgeStyle&quot;,&quot;elbow&quot;:&quot;vertical&quot;,&quot;curved&quot;:0,&quot;rounded&quot;:0};fontSize=16;" parent="1" vertex="1">
          <mxGeometry x="148" y="60" width="10" height="80" as="geometry" />
        </mxCell>
        <mxCell id="7sOp8VvWY2KY5_nVOXm8-8" value="아이디/비밀번호 확인" style="html=1;verticalAlign=bottom;endArrow=block;edgeStyle=elbowEdgeStyle;elbow=vertical;curved=0;rounded=0;fontSize=12;startSize=8;endSize=8;" parent="1" target="7sOp8VvWY2KY5_nVOXm8-1" edge="1">
          <mxGeometry width="80" relative="1" as="geometry">
            <mxPoint x="152" y="99.41" as="sourcePoint" />
            <mxPoint x="232" y="99.41" as="targetPoint" />
          </mxGeometry>
        </mxCell>
        <mxCell id="7sOp8VvWY2KY5_nVOXm8-11" value="return TRUE" style="html=1;verticalAlign=bottom;endArrow=open;dashed=1;endSize=8;edgeStyle=elbowEdgeStyle;elbow=vertical;curved=0;rounded=0;fontSize=12;" parent="1" target="3t_y-RV0TSokjo_L7L0G-2" edge="1">
          <mxGeometry relative="1" as="geometry">
            <mxPoint x="322" y="211" as="sourcePoint" />
            <mxPoint x="156" y="200" as="targetPoint" />
            <Array as="points" />
          </mxGeometry>
        </mxCell>
        <mxCell id="7sOp8VvWY2KY5_nVOXm8-13" value="loop" style="shape=umlFrame;whiteSpace=wrap;html=1;pointerEvents=0;fontSize=16;" parent="1" vertex="1">
          <mxGeometry x="-97" y="8" width="486" height="175" as="geometry" />
        </mxCell>
        <mxCell id="7sOp8VvWY2KY5_nVOXm8-14" value="return FALSE" style="html=1;verticalAlign=bottom;endArrow=open;dashed=1;endSize=8;edgeStyle=elbowEdgeStyle;elbow=vertical;curved=0;rounded=0;fontSize=12;" parent="1" source="7sOp8VvWY2KY5_nVOXm8-9" edge="1">
          <mxGeometry relative="1" as="geometry">
            <mxPoint x="181" y="87" as="sourcePoint" />
            <mxPoint x="153" y="161" as="targetPoint" />
            <Array as="points">
              <mxPoint x="319" y="161" />
            </Array>
          </mxGeometry>
        </mxCell>
        <mxCell id="7sOp8VvWY2KY5_nVOXm8-15" value="로그인 성공 알림" style="html=1;verticalAlign=bottom;endArrow=open;dashed=1;endSize=8;edgeStyle=elbowEdgeStyle;elbow=vertical;curved=0;rounded=0;fontSize=12;" parent="1" edge="1">
          <mxGeometry relative="1" as="geometry">
            <mxPoint x="152.5" y="228" as="sourcePoint" />
            <mxPoint x="-42" y="217" as="targetPoint" />
            <Array as="points">
              <mxPoint x="68" y="217" />
            </Array>
          </mxGeometry>
        </mxCell>
        <mxCell id="7sOp8VvWY2KY5_nVOXm8-17" value="아이디 혹은 비밀번호 틀렸다 알림" style="html=1;verticalAlign=bottom;endArrow=open;dashed=1;endSize=8;edgeStyle=elbowEdgeStyle;elbow=vertical;curved=0;rounded=0;fontSize=12;" parent="1" target="3t_y-RV0TSokjo_L7L0G-1" edge="1">
          <mxGeometry relative="1" as="geometry">
            <mxPoint x="155" y="170" as="sourcePoint" />
            <mxPoint x="75" y="170" as="targetPoint" />
          </mxGeometry>
        </mxCell>
        <mxCell id="Un5ZzFzQ4smaFUyI1WfV-2" value="로그인 취소 버튼 클릭" style="html=1;verticalAlign=bottom;endArrow=block;edgeStyle=elbowEdgeStyle;elbow=vertical;curved=0;rounded=0;" edge="1" parent="1" target="3t_y-RV0TSokjo_L7L0G-2">
          <mxGeometry width="80" relative="1" as="geometry">
            <mxPoint x="-35" y="250" as="sourcePoint" />
            <mxPoint x="45" y="250" as="targetPoint" />
            <Array as="points">
              <mxPoint x="-27" y="250" />
            </Array>
          </mxGeometry>
        </mxCell>
        <mxCell id="Un5ZzFzQ4smaFUyI1WfV-3" value="" style="html=1;points=[];perimeter=orthogonalPerimeter;outlineConnect=0;targetShapes=umlLifeline;portConstraint=eastwest;newEdgeStyle={&quot;edgeStyle&quot;:&quot;elbowEdgeStyle&quot;,&quot;elbow&quot;:&quot;vertical&quot;,&quot;curved&quot;:0,&quot;rounded&quot;:0};" vertex="1" parent="1">
          <mxGeometry x="148" y="247" width="10" height="38" as="geometry" />
        </mxCell>
        <mxCell id="Un5ZzFzQ4smaFUyI1WfV-4" value="로그인 취소 알림" style="html=1;verticalAlign=bottom;endArrow=open;dashed=1;endSize=8;edgeStyle=elbowEdgeStyle;elbow=vertical;curved=0;rounded=0;" edge="1" parent="1" source="Un5ZzFzQ4smaFUyI1WfV-3" target="3t_y-RV0TSokjo_L7L0G-1">
          <mxGeometry relative="1" as="geometry">
            <mxPoint x="190" y="187" as="sourcePoint" />
            <mxPoint x="110" y="187" as="targetPoint" />
            <Array as="points">
              <mxPoint x="133" y="275" />
            </Array>
          </mxGeometry>
        </mxCell>
      </root>
    </mxGraphModel>
  </diagram>
</mxfile>
